<svg fill="none" height="252" viewBox="0 0 413 252" width="413" xmlns="http://www.w3.org/2000/svg"><g clip-rule="evenodd" fill="#447466" fill-rule="evenodd"><path d="m153.008 32.8839c-.521-.4056-1.065-.482-1.632-.2293l-.485.3433c-.039.1025-.343.2801-.911.5328-1.064.4738-2.786 1.092-5.167 1.8546s-5.069 1.5983-8.065 2.5072c-.025-1.7738-.071-3.2618-.139-4.464-.067-1.2022-.133-2.6389-.197-4.3102 1.056-.3004 2.054-.6381 2.992-1.0133s1.762-.7207 2.471-1.0366c1.348-.6002 2.351-1.4504 3.009-2.5507.658-1.1002 1.067-2.2811 1.228-3.5426s.107-2.576-.162-3.9436-.656-2.6188-1.161-3.7537c-.821-1.8441-1.764-2.5293-2.828-2.0555-.071.0316-.152.0888-.242.1717-.091.0828-.172.1401-.243.1716-.11.1341-.414.3118-.91.5329-.568.2527-1.329.5489-2.282.8886-.954.3397-1.995.6756-3.122 1.0075-.594-4.57988-1.444-8.11108-2.549-10.59357-.569-1.27671-1.494-2.16094-2.775-2.652693-1.282-.491752-2.741-.7133569-4.377-.6648145-1.636.0485425-3.325.3119515-5.067.7902285-1.743.478279-3.359 1.049089-4.849 1.712439-1.135.50541-1.984 1.03228-2.548 1.58062-.563.54834-.719 1.10622-.466 1.67364.331.3624.576.72091.734 1.07555.442.993 1.005 2.59097 1.688 4.7939.683 2.203 1.412 4.7468 2.186 7.6316l-5.865 1.7192c-.53-2.9087-1.206-5.2851-2.027-7.1292-.568-1.2767-1.493-2.1609-2.775-2.6527-1.281-.4917-2.748-.7311-4.4-.718s-3.3489.2587-5.0913.737c-1.7423.4783-3.3584 1.0491-4.8483 1.7125-1.1352.5054-1.9845 1.0322-2.548 1.5806-.5635.5483-.7189 1.1062-.4663 1.6736.3314.3624.576.7209.7339 1.0756.3474.7802.7817 1.9466 1.303 3.4993s1.0821 3.3852 1.6825 5.4975c-2.8539.8457-5.4023 1.6616-7.6451 2.4478-2.2429.7861-4.0383 1.4792-5.3864 2.0794-2.4831 1.1056-3.4721 2.2258-2.9668 3.3606.4421.993 2.388 1.5927 5.8379 1.799 3.4498.2063 7.6189.0711 12.5074-.4056l1.0194 4.008 2.5481 9.4465c-2.0813.6717-3.9694 1.2999-5.6643 1.8845-1.695.5847-3.0391 1.0982-4.0324 1.5404-1.348.6002-2.1894 1.1448-2.5243 1.6338-.3348.489-.3759 1.0173-.1233 1.5847.379.8511 1.8833 1.4137 4.5131 1.6876 2.6299.2739 5.9317.2911 9.9052.0516.949 3.6573 1.897 6.9322 2.845 9.8248.947 2.8925 1.8 5.1899 2.558 6.8922 1.011 2.2697 2.119 3.1361 3.325 2.5991.568-.2527 1.06-.9607 1.477-2.1238.418-1.1632.779-2.6416 1.086-4.4353.307-1.7938.573-3.8674.801-6.2208.227-2.3534.384-4.8664.469-7.539 1.924-.2616 3.692-.5389 5.304-.8318s3.467-.5663 5.564-.8202c.387-.087.763-.1484 1.13-.1841.366-.0358.759-.0617 1.177-.0778.569 2.0414 1.114 3.8385 1.635 5.3911.521 1.5527 1.003 2.8255 1.445 3.8185 1.01 2.2697 2.119 3.1361 3.325 2.5991.851-.3791 1.594-1.8144 2.227-4.3061s1.087-5.6258 1.361-9.4022c3.193-.6568 6.065-1.3192 8.615-1.9873 2.551-.6681 4.606-1.3496 6.167-2.0446 1.348-.6001 2.359-1.4326 3.033-2.4974.673-1.0648 1.1-2.2536 1.281-3.5663.181-1.3128.144-2.6352-.109-3.9674-.253-1.3321-.648-2.6011-1.185-3.8068-.379-.8512-.828-1.4795-1.349-1.8852zm-36.358.2523c1.277-.1862 2.582-.406 3.915-.6593l2.347 9.2811-9.567 2.8572c-.049-2.0181-.123-3.855-.222-5.5104-.1-1.6555-.229-3.4253-.387-5.3093 1.332-.2533 2.637-.4731 3.914-.6593z"/><path d="m195.852 85.2962c-.838 3.8081-1.683 7.6185-2.525 11.4233-.453 2.0591-.881 4.0515-1.278 5.9865-.458-.15-.918-.194-1.404-.098-.592.116-1.072.484-1.433 1.105-.363.618-.741 1.348-1.129 2.18-.331.748-.681 1.436-1.042 2.057-.362.627-.711 1.137-1.042 1.546-1.87 1.739-4.527 2.944-7.98 3.615l-.89.174.828-2.639 1.826-6.548c.866-2.987 1.807-6.369 2.825-10.1471 1.027-3.7735 1.941-7.5638 2.752-11.3664.399-1.8695.742-3.6866 1.036-5.4512.882-.241 1.796-.4808 2.775-.7017 2.834-.6581 5.879-1.2995 9.128-1.9319zm-21.889 44.9048c-.211 2.997-.582 6.116-1.126 9.35-.541 3.237-1.226 6.428-2.064 9.582-.828 3.155-1.709 5.994-2.629 8.507-.922 2.52-1.858 4.598-2.818 6.226-.955 1.628-1.832 2.524-2.634 2.681l-.312-.045.082-.121c-.168-.861-.045-2.362.362-4.508.408-2.143.983-4.679 1.723-7.606.737-2.929 1.613-6.126 2.622-9.594 1.017-3.463 2.072-6.954 3.184-10.469l3.481-11.819c.293 2.209.332 4.816.129 7.816zm-32.859-19.419-1.079 4.547-.022-.105c-.252.808-.502 1.633-.759 2.469-.248.843-.489 1.698-.737 2.567l-.019-.097c-.72 2.344-1.449 4.756-2.21 7.24-.755 2.487-1.551 4.754-2.39 6.808-.841 2.059-1.712 3.775-2.614 5.153-.907 1.379-1.85 2.165-2.846 2.36-1.132.218-2.065-.269-2.815-1.468-.756-1.192-1.296-2.654-1.627-4.375-.379-1.923-.516-4.062-.425-6.421.092-2.359.415-4.586.973-6.689 1.585-6.364 3.315-11.374 5.181-15.041 1.869-3.665 3.631-5.661 5.294-5.981l.198-.04c-.665.82-.882 1.824-.652 3.019.223 1.129.809 1.94 1.762 2.442.961.503 1.973.649 3.032.441.729-.139 1.388-.417 1.956-.842.571-.42.957-1.025 1.141-1.821zm92.945-23.0999c1.891-3.6709 3.656-5.7267 5.281-6.1852.585.1629.946.6091 1.085 1.3397.194.9905.138 2.2922-.171 3.9007-.3 1.604-.895 3.3051-1.786 5.0932-.885 1.7914-2.114 3.6085-3.676 5.4623-1.561 1.8506-3.495 3.5512-5.806 5.0992 1.49-6.1354 3.174-11.0423 5.073-14.7099zm29.767 14.5479c.1-2.356.421-4.5847.976-6.6884 1.595-6.3626 3.331-11.3799 5.211-15.0441 1.876-3.6654 3.64-5.6621 5.308-5.9844l.203-.0402c-.671.8199-.887 1.826-.654 3.0195.218 1.1244.806 1.942 1.765 2.4407.957.5041 1.971.648 3.036.4417 1.061-.2064 1.893-.7106 2.494-1.5148-.423 1.7323-.785 3.4188-1.084 5.0597-.31 1.6408-.615 3.2125-.944 4.7273l-.02-.1015c-.22.6592-.424 1.372-.618 2.1316-.204.7596-.401 1.5047-.608 2.232-.716 2.3402-1.46 4.7385-2.222 7.1899-.763 2.457-1.565 4.728-2.404 6.814-.832 2.09-1.723 3.829-2.659 5.209-.942 1.388-1.912 2.177-2.901 2.372-1.134.217-2.084-.27-2.827-1.465-.75-1.194-1.295-2.654-1.631-4.38-.374-1.919-.512-4.058-.421-6.419zm-49.625 14.019c.033.181.046.372.086.555.335 1.723.918 3.38 1.746 4.975.825 1.592 1.917 2.963 3.278 4.108 1.361 1.149 3.018 1.978 4.977 2.489 1.96.514 4.235.521 6.819.019 3.314-.644 6.411-2.202 9.264-4.687 2.86-2.476 5.438-5.423 7.733-8.829.829-1.218 1.592-2.474 2.335-3.746.335 1.185.798 2.367 1.397 3.539.835 1.629 1.93 3.03 3.301 4.208 1.364 1.181 3.031 2.043 4.994 2.593 1.973.546 4.209.573 6.733.085 2.794-.544 5.123-1.803 6.983-3.782 1.861-1.973 3.511-4.411 4.948-7.305.786 2.598 2.015 4.506 3.706 5.733 1.683 1.218 3.688 1.6 6.016 1.152 1.599-.312 3.153-1.18 4.667-2.611 1.514-1.43 2.964-3.189 4.347-5.28 1.391-2.092 2.687-4.393 3.888-6.895 1.205-2.505 2.301-4.9849 3.307-7.4534 1.007-2.4652 1.867-4.7797 2.584-6.9459.717-2.1707 1.276-3.9833 1.684-5.4401.038-.1394.071-.3369.092-.5845.019-.2432.019-.4328-.008-.5678-.144-.7272-.531-1.2526-1.183-1.5727-.651-.3202-1.338-.4116-2.071-.2711-1.197.2331-1.908.9894-2.143 2.2766-.185 1.207-.563 2.7039-1.144 4.5054-.579 1.7992-1.272 3.7178-2.085 5.7657-.808 2.0525-1.684 4.096-2.63 6.1361-.954 2.0437-1.881 3.9077-2.795 5.6027-.914 1.689-1.778 3.077-2.605 4.166-.821 1.089-1.531 1.691-2.13 1.805-.196.037-.347-.205-.45-.738-.197-.994-.138-2.466.175-4.418.309-1.949.763-4.226 1.362-6.8192.597-2.5912 1.314-5.41 2.13-8.4619.821-3.0463 1.68-6.1706 2.573-9.372 1.114-3.8595 2.187-7.8037 3.236-11.8249 1.048-4.0212 1.976-7.8439 2.777-11.478.816-3.6297 1.401-6.9292 1.756-9.884.356-2.9593.369-5.2995.034-7.0251-.29-1.4546-.789-2.6147-1.513-3.4725-.72-.8555-1.538-1.4902-2.453-1.8985-.907-.4082-1.854-.6369-2.837-.6882-.983-.0468-1.864.0034-2.673.1606-1.538.2979-2.802.8355-3.794 1.6119-.999.7819-1.423 1.5337-1.278 2.2632.088.464.284.7686.588.9147l.02.1004c.144.7306.105 2.01-.126 3.8427-.227 1.8338-.605 4.0368-1.131 6.6158-.525 2.5778-1.138 5.4545-1.821 8.6124-.688 3.1578-1.42 6.4306-2.206 9.8137l-1.694 7.6598-.118-.6001c-.309-1.5862-.914-2.8131-1.804-3.672-.892-.8601-1.895-1.4892-3.002-1.8919-1.119-.406-2.243-.5989-3.374-.5856-1.138.0157-2.103.096-2.899.2555-4.791.9258-9.081 3.5839-12.888 7.9699-3.799 4.3837-6.576 10.7697-8.322 19.1557-.246 1.2939-.447 2.638-.596 4.0296-.018.044-.035.079-.051.123-1.301 3.209-2.851 6.309-4.646 9.311-1.789 2.997-3.758 5.597-5.914 7.804-2.154 2.207-4.261 3.511-6.317 3.908-1.327.258-2.35-.04-3.063-.899-.727-.858-1.263-2.217-1.624-4.072-.221-1.13-.355-2.269-.408-3.43-.049-1.158-.036-2.4.056-3.727 3.288-1.601 6.161-3.603 8.633-6.01 2.468-2.404 4.494-4.8938 6.067-7.4716 1.572-2.5755 2.666-5.1232 3.283-7.6508.615-2.5288.736-4.7541.362-6.676-.414-2.1227-1.397-3.7178-2.959-4.7954-1.553-1.073-3.761-1.3262-6.62-.7752-4.86.9414-9.277 3.6955-13.253 8.251-2.958 3.3787-5.328 7.7479-7.116 13.0965-.864.3402-1.398 1.0385-1.587 2.1082-.185 1.2073-.567 2.7023-1.145 4.5053-.582 1.8-1.272 3.721-2.077 5.766-.809 2.053-1.683 4.095-2.631 6.136-.944 2.04-1.874 3.906-2.785 5.601-.91 1.688-1.778 3.075-2.598 4.162-.821 1.091-1.528 1.692-2.126 1.809-.205.04-.355-.207-.451-.74-.196-.993-.153-2.465.122-4.406.272-1.946.726-4.223 1.357-6.818.628-2.599 1.349-5.453 2.155-8.572.808-3.114 1.675-6.308 2.625-9.5894 1.151-4.3514 2.346-8.744 3.585-13.1813 1.24-4.4328 2.235-8.5868 3.001-12.4485 4.025-.918 7.839-2.0033 11.456-3.2548 3.613-1.2516 6.749-2.55 9.416-3.8941 2.669-1.3408 4.74-2.7072 6.226-4.0982 1.486-1.3865 2.118-2.6447 1.9-3.7769-.206-1.0574-.854-1.9108-1.942-2.5588-1.092-.6503-2.002-.9013-2.732-.7608-1.395.2689-1.938 1.2014-1.625 2.7909.112.599-.336 1.2013-1.348 1.8093-1.012.6101-2.38 1.2225-4.116 1.8304-1.735.6146-3.745 1.2103-6.03 1.7892-2.284.5834-4.656 1.1132-7.101 1.5884l-2.676.5187c.203-2.5165.142-4.6392-.195-6.3614-.283-1.4568-.785-2.5968-1.502-3.4234-.711-.8232-1.526-1.44-2.439-1.8471-.915-.4094-1.855-.6359-2.835-.6883-.986-.0502-1.873.0022-2.679.1584-1.535.299-2.8.8344-3.797 1.6141-.991.7774-1.418 1.5326-1.275 2.2621.075.3949.23.6436.455.7362.076.0535.133.1461.155.2778.132.6659.097 1.8393-.089 3.5281-.183 1.6855-.466 3.5327-.835 5.5304-2.495.2733-4.885.5667-7.163.8679-1.953.2666-3.83.5744-5.669.9113-.019-1.3486-.13-2.5756-.342-3.6632-.321-1.6564-.818-2.9693-1.492-3.9397-.667-.9727-1.419-1.7212-2.246-2.2477-.825-.5276-1.726-.8343-2.706-.9202-.986-.0859-1.907-.0413-2.766.126-1.458.2834-2.708.869-3.744 1.7569-1.025.8879-1.466 1.7311-1.31 2.5265.009.0647.045.1606.105.2878.062.1271.098.223.108.2866.079.0547.135.1506.157.2778.159.7997.113 2.0937-.117 3.8974-.238 1.8003-.61 3.9509-1.119 6.4618-.091.4395-.187.9057-.285 1.3686-.99.9827-1.745 2.0982-2.259 3.3531-.697 1.7189-.823 3.739-.373 6.0558.07.3714.162.7139.248 1.0463-.526 2.2543-1.082 4.6057-1.663 7.0719l-2.262 9.6291-2.906 12.114c-.22.888-.445 1.791-.662 2.684-.506 1.501-1.056 3.031-1.687 4.636-.808 2.05-1.683 4.076-2.643 6.083-.947 2.011-1.897 3.846-2.85 5.509-.955 1.663-1.838 3.02-2.671 4.077-.824 1.053-1.505 1.632-2.034 1.737-.468.09-.733-.063-.809-.461-.198-.995.059-2.694.759-5.104.701-2.404 1.509-5.002 2.41-7.793.644-1.981 1.312-4.054 1.993-6.218.677-2.159 1.276-4.325 1.789-6.484.503-2.162.864-4.213 1.07-6.145.215-1.928.179-3.626-.11-5.0861-.306-1.5895-.829-2.8623-1.569-3.8215-.739-.9571-1.558-1.6565-2.473-2.0971-.913-.4428-1.86-.7061-2.84-.7931-.984-.0825-1.903-.0413-2.765.1249-1.525.2979-2.781.8366-3.767 1.6074-.98.7786-1.408 1.5282-1.264 2.2599.06.3324.138.5377.224.6269.085.0859.205.1818.363.29.183.2421.295.4272.322.5566.098.531.095 1.2404 0 2.1161-.11.88-.294 1.897-.546 3.046.013-.276.013-.551-.006-.826-.021-.267-.061-.567-.126-.904-.309-1.589-.908-2.8163-1.802-3.6752-.891-.8567-1.89-1.4881-3.004-1.8907-1.106-.4038-2.231-.6013-3.364-.5879-1.134.0168-2.101.0993-2.896.2532-4.78.9292-9.065 3.5851-12.854 7.9656-3.802 4.384-6.57 10.766-8.312 19.157-.067.31-.113.629-.172.946-.575 1.793-1.246 3.665-2.012 5.617-.809 2.051-1.686 4.078-2.644 6.083-.95 2.011-1.9 3.847-2.852 5.511-.951 1.662-1.836 3.024-2.6651 4.076-.8329 1.052-1.5072 1.632-2.0409 1.737-.4633.088-.7324-.063-.8116-.464-.1909-.995.058-2.698.7625-5.111.7-2.414 1.5027-5.017 2.4091-7.812.642-1.987 1.306-4.067 1.987-6.23.68-2.168 1.274-4.337 1.782-6.503.506-2.166.864-4.217 1.074-6.157.211-1.934.172-3.633-.111-5.097-.309-1.595-.836-2.875-1.576-3.835-.739-.959-1.584-1.673-2.534-2.14-.9534-.47-1.927-.73-2.9396-.775-1.0059-.043-1.9068.013-2.7017.167-.9345.182-1.697.483-2.3043.908-.6085.432-1.2069.874-1.8064 1.335l-.019-.098c-.5917.523-1.2236 1.043-1.9202 1.554-.6934.514-1.7361.906-3.1294 1.179-.6609.128-1.3419.189-2.0252.186.0067-1.025-.0871-2.166-.2568-3.431-.1786-1.262-.3416-2.287-.4934-3.08-.3461-1.773-1.2527-3.1543-2.7186-4.1281-1.4669-.9782-2.9596-1.3218-4.4847-1.0251-2.522.4908-4.2212 1.6643-5.1032 3.5202-.8775 1.853-1.1041 3.878-.6776 6.062.2969 1.526 1.1309 2.961 2.4896 4.314 1.3676 1.354 2.8704 2.352 4.5104 2.992-.1239 1.13-.3316 2.372-.6174 3.732-.2891 1.364-.5683 2.73-.8552 4.093-.3282 1.509-.6252 2.89-.9009 4.145-.0916.448-.1642.823-.2166 1.164-.1117.224-.2144.468-.2892.741l-.0167-.098c-2.2329 7.308-4.794 14.236-7.68 20.784-2.8971 6.549-5.9639 12.356-9.2161 17.424-3.2477 5.066-6.6081 9.209-10.0836 12.43-3.4676 3.22-6.8928 5.161-10.28 5.814-2.0587.4-4.0181.316-5.8859-.249-1.8633-.567-3.5569-1.566-5.0764-2.986-1.515-1.43-2.8134-3.225-3.8896-5.388-1.0707-2.162-1.8823-4.64-2.426-7.423-.4075-2.123-.6018-4.957-.5716-8.503.0335-3.551.3595-7.534.9724-11.956.6196-4.415 1.6076-9.134 2.9697-14.141 1.3676-5.012 3.1684-10.009 5.4314-14.99 1.4436-3.168 2.9921-6.085 4.6354-8.739 1.6512-2.661 3.2578-4.984 4.8331-6.976 1.5652-1.99 3.0601-3.5854 4.4713-4.7901 1.4167-1.2025 2.6559-1.9086 3.7154-2.1172 1.1243-.2164 1.9984.2176 2.6203 1.2995.6252 1.0831 1.0751 2.3548 1.3643 3.8108.3059 1.589.4276 3.36.3617 5.295-.0692 1.941-.3215 3.883-.7592 5.821-.4443 1.946-1.0729 3.808-1.8845 5.577-.815 1.78-1.8142 3.294-2.9976 4.556-.3361.414-.5794.803-.7436 1.178-.1641.378-.1965.831-.0993 1.359.1451.732.5861 1.403 1.3252 2.017.7402.615 1.6155 1.129 2.6269 1.552 1.0093.427 2.0989.713 3.2689.861 1.1634.155 2.2452.133 3.241-.06.661-.128 1.2828-.316 1.8555-.567.5672-.247 1.0383-.649 1.4123-1.203l.0201.101c2.5388-3.245 4.1297-6.768 4.7605-10.572.6375-3.808.6118-7.5-.0849-11.078-.6843-3.512-1.7784-6.4782-3.2845-8.9099-1.5027-2.4205-3.2745-4.348-5.3075-5.7803-2.0341-1.4266-4.2313-2.3547-6.5903-2.7964-2.3601-.4361-4.7281-.4228-7.115.0435-1.8577.3614-3.6597.9336-5.4013 1.7178-1.7394.783-3.3638 1.6642-4.8565 2.6447-1.4993.9805-2.8346 1.9967-4.0057 3.0452-1.1734 1.0564-2.1424 2.0703-2.9184 3.0452-3.5669 4.3392-6.655 8.7382-9.2585 13.2012-2.6136 4.462-4.82298 9.123-6.62824 13.979-1.8142 4.858-3.27338 9.922-4.38534 15.195-1.1075 5.271-1.947052 10.851-2.525363 16.738-.144019 2.095-.157416 4.299-.052472 6.616.104944 2.323.367305 4.541.774805 6.661.65869 3.382 1.79187 6.634 3.39394 9.761 1.61101 3.132 3.67975 5.804 6.21407 8.031 2.5354 2.226 5.5241 3.866 8.966 4.917 3.4386 1.048 7.3149 1.159 11.6276.321 5.1758-1.005 10.1205-3.274 14.8474-6.802 4.7158-3.531 9.1469-8.119 13.28-13.775 4.133-5.653 7.9456-12.24 11.4445-19.762 3.4922-7.524 6.6048-15.78 9.33-24.772l-.0782.118c.2311-.593.2892-1.155.1854-1.686 0-.016-.0078-.026-.0134-.041.1473-.514.307-1.106.4823-1.804.3126-1.23.6319-2.527.9445-3.901.3215-1.369.6174-2.681.8864-3.938.2769-1.256.4711-2.272.5984-3.056 1.2303-.032 2.4785-.172 3.7378-.416 1.5217-.295 2.8972-.699 4.1062-1.21-.1172 1.191-.3215 2.279-.6106 3.262-.2858.988-.6643 2.42-1.1243 4.297-.4879 2.093-.9791 4.25-1.4759 6.479-.4968 2.228-.9278 4.461-1.2783 6.697-.3562 2.239-.5928 4.398-.7045 6.484-.1116 2.082.0067 4.023.3617 5.811.6141 3.182 1.812 5.545 3.5961 7.091 1.7818 1.549 3.9678 2.07 6.5568 1.568 1.5898-.309 3.1427-1.179 4.6544-2.608 1.513-1.43 2.961-3.189 4.346-5.281 1.386-2.089 2.676-4.388 3.874-6.892.305-.626.579-1.248.868-1.874.339 1.308.828 2.605 1.49 3.895.834 1.627 1.929 3.029 3.297 4.207 1.368 1.179 3.031 2.044 4.997 2.59 1.969.55 4.211.575 6.733.089 2.788-.541 5.119-1.821 7.004-3.835 1.88-2.019 3.501-4.467 4.869-7.347.779 2.604 2.035 4.528 3.764 5.772 1.716 1.249 3.738 1.648 6.062 1.195 1.596-.31 3.143-1.176 4.656-2.605 1.247-1.177 2.44-2.59 3.607-4.217-.424 2.044-.826 4.056-1.188 6.018-.907 4.887-1.554 9.348-1.939 13.379-.389 4.027-.351 7.236.111 9.625.447 2.319 1.295 3.997 2.529 5.029 1.236 1.034 2.95 1.335 5.139.914 2.321-.453 4.436-1.81 6.335-4.071 1.903-2.263 3.585-5.046 5.037-8.356 1.456-3.311 2.673-6.969 3.65-10.975.973-4.009 1.719-7.968 2.232-11.886.516-3.915.796-7.601.848-11.055.052-3.447-.108-6.303-.48-8.572 1.513-.362 3.064-.87 4.659-1.522 1.594-.653 3.087-1.477 4.479-2.469.847-.606 1.626-1.276 2.346-1.995-.295 1.73-.542 3.367-.753 4.882-.362 2.722-.492 4.895-.381 6.523.023.48.058.936.112 1.373.052.437.122.891.21 1.351.618 3.184 1.822 5.549 3.604 7.092 1.781 1.547 3.961 2.068 6.552 1.566 1.589-.311 3.146-1.178 4.659-2.606 1.511-1.429 2.958-3.188 4.343-5.28 1.386-2.091 2.676-4.393 3.876-6.891.573-1.199 1.117-2.389 1.65-3.575z"/><path d="m197.365 205.109c-.68-.435-1.4-.579-2.149-.435-1.086.213-1.774.877-2.051 1.993-.073.365-.236.888-.493 1.578-.248.686-.711 1.428-1.363 2.224-.656.802-1.586 1.6-2.769 2.394-1.192.798-2.751 1.486-4.686 2.075.044-.856.053-1.723.024-2.6-.029-.876-.097-1.623-.221-2.24-.265-1.355-.693-2.368-1.281-3.032-.588-.663-1.216-1.087-1.889-1.277-.672-.188-1.336-.231-1.988-.144-.659.09-1.188.179-1.603.258-.943.185-1.754.574-2.416 1.159-.665.589-1.199 1.294-1.606 2.119-.404.817-.658 1.699-.756 2.631-.101.94-.067 1.854.109 2.735.263 1.364.734 2.523 1.416 3.49.682.965 1.701 1.666 3.061 2.105-.515 1.727-1.144 3.581-1.886 5.564-.751 1.976-1.537 3.829-2.368 5.546-.838 1.717-1.682 3.173-2.545 4.366-.867 1.194-1.707 1.865-2.521 2.025-1.16.225-2.121-.185-2.889-1.24-.775-1.053-1.311-2.363-1.614-3.924-.359-1.843-.47-3.975-.344-6.402.127-2.425.434-4.943.921-7.545.481-2.605 1.114-5.162 1.9-7.685.781-2.515 1.638-4.803 2.587-6.86.943-2.056 1.923-3.744 2.941-5.078 1.01-1.322 2.028-2.088 3.047-2.282.068-.014.252.016.547.097-.681.829-.911 1.847-.672 3.056.219 1.143.821 1.961 1.807 2.471.977.504 2.01.649 3.1.435 1.089-.211 1.987-.786 2.688-1.727.696-.941.899-2.19.595-3.748l-.022-.098c-.302-.855-.72-1.733-1.253-2.645-.527-.92-1.226-1.674-2.082-2.277-.864-.607-1.903-1.052-3.124-1.338-1.226-.289-2.687-.272-4.386.058-4.229.823-7.917 2.745-11.077 5.759-3.159 3.013-5.707 6.571-7.633 10.65-1.923 4.085-3.201 8.411-3.828 12.988-.151 1.069-.258 2.122-.327 3.16-.218.574-.433 1.153-.666 1.748-.837 2.106-1.732 4.207-2.707 6.304-.965 2.094-1.92 4.012-2.853 5.748-.936 1.736-1.826 3.165-2.669 4.281-.84 1.118-1.569 1.739-2.186 1.855-.203.04-.355-.212-.463-.758-.199-1.021-.155-2.532.13-4.528.281-1.997.747-4.334 1.395-7.002.645-2.67 1.384-5.604 2.21-8.805.824-3.195 1.728-6.481 2.696-9.851 1.181-4.466 2.409-8.982 3.679-13.537 1.264-4.557 2.294-8.817 3.079-12.789 4.131-.946 8.045-2.055 11.752-3.344 3.707-1.288 6.934-2.62 9.666-4 2.734-1.38 4.865-2.78 6.387-4.209 1.53-1.423 2.183-2.718 1.955-3.874-.211-1.093-.88-1.966-2.002-2.633-1.113-.667-2.048-.927-2.797-.781-1.431.277-1.985 1.234-1.671 2.864.126.616-.34 1.233-1.379 1.863-1.041.627-2.451 1.252-4.224 1.88-1.783.626-3.843 1.241-6.192 1.839-2.345.598-4.774 1.136-7.284 1.627l-2.747.532c.21-2.587.143-4.757-.202-6.531-.289-1.501-.803-2.671-1.536-3.52-.735-.844-1.57-1.477-2.506-1.899-.935-.414-1.903-.648-2.915-.705-1.006-.049-1.924.004-2.744.164-1.574.307-2.881.859-3.897 1.659-1.022.797-1.457 1.574-1.308 2.32.077.408.233.662.462.76.081.053.138.149.161.284.135.683.106 1.891-.091 3.624-.192 1.731-.475 3.628-.849 5.678-2.562.284-5.021.581-7.363.899-2.337.312-4.595.679-6.778 1.103-2.857.558-5.502 1.245-7.919 2.073-2.418.821-4.443 1.852-6.079 3.087-1.627 1.238-2.808 2.735-3.523 4.501-.716 1.763-.843 3.839-.381 6.223.409 2.108 1.141 3.592 2.19 4.449 1.048.857 1.983 1.204 2.797 1.047.685-.136 1.217-.507 1.592-1.106.378-.602.51-1.388.392-2.357l-.024-.099c-.182-1.31.304-2.458 1.451-3.463 1.148-.997 2.753-1.894 4.831-2.687 2.071-.789 4.562-1.521 7.47-2.194 2.904-.672 6.033-1.33 9.373-1.977l-2.517 11.087c-.864 3.907-1.728 7.822-2.597 11.739-.865 3.912-1.62 7.613-2.29 11.097-.663 3.492-1.185 6.625-1.565 9.421-.374 2.789-.505 5.028-.39 6.698.024.49.064.96.114 1.409.055.447.125.912.219 1.39.636 3.266 1.865 5.696 3.692 7.284 1.832 1.588 4.073 2.125 6.731 1.606 1.633-.318 3.221-1.207 4.777-2.673 1.553-1.473 3.036-3.278 4.457-5.429 1.421-2.144 2.749-4.508 3.978-7.077.195-.404.368-.805.55-1.206.395 1.416.936 2.757 1.626 4.014.93 1.689 2.077 3.115 3.425 4.266 1.356 1.149 2.929 1.956 4.71 2.422 1.792.468 3.704.5 5.749.102 2.657-.514 4.967-1.689 6.947-3.522 1.977-1.832 3.695-3.984 5.156-6.461 1.464-2.477 2.684-5.039 3.644-7.705.968-2.66 1.73-5.106 2.285-7.331 1.963-.452 3.825-1.061 5.579-1.83 1.761-.765 3.357-1.656 4.786-2.675 1.426-1.02 2.621-2.154 3.58-3.399.956-1.248 1.619-2.576 1.979-3.987.043-.5.067-.844.067-1.024 0-.173-.02-.364-.06-.568-.146-.748-.559-1.342-1.246-1.77z"/><path d="m326.957 151.124c.892.868 1.888 1.528 2.975 1.974 1.092.45 2.208.739 3.338.865 1.131.127 2.097.111 2.9-.046s1.428-.435 1.863-.833c.445-.401.616-.87.51-1.407-.065-.336.008-.938.219-1.816.211-.876.479-1.731.804-2.56.255-.814.499-1.628.724-2.439.223-.804.287-1.447.198-1.915-.268-1.407-.836-2.551-1.699-3.428-.86-.876-1.841-1.536-2.93-1.988-1.096-.445-2.199-.732-3.333-.862-1.133-.122-2.073-.116-2.805.026-1.666.325-2.398 1.028-2.189 2.098.037.204-.068.659-.308 1.368-.243.71-.499 1.467-.751 2.284-.356 1.043-.688 2.031-.986 2.961-.309.932-.402 1.696-.284 2.299.273 1.408.853 2.548 1.754 3.419z"/><path d="m387.819 158.195c1.947-3.762 3.755-5.875 5.437-6.342.594.165.967.626 1.108 1.374.203 1.019.142 2.353-.169 4.001-.312 1.649-.923 3.388-1.842 5.226-.91 1.831-2.173 3.7-3.779 5.598-1.606 1.896-3.595 3.645-5.968 5.233 1.525-6.292 3.258-11.323 5.213-15.09zm24.659 4.013c-.19-.95-.779-1.614-1.772-1.986l.126.081c-.383-.134-.693-.2-.937-.186-.25.008-.473.036-.679.077-1.363.263-2.142 1.011-2.323 2.246-.508 2.501-1.427 5.393-2.769 8.69-1.342 3.291-2.931 6.475-4.772 9.546-1.846 3.075-3.876 5.743-6.083 8.006-2.218 2.264-4.389 3.6-6.501 4.008-1.365.263-2.411-.042-3.155-.922-.743-.88-1.294-2.272-1.663-4.178-.225-1.152-.364-2.326-.419-3.515-.06-1.191-.037-2.465.055-3.819 3.381-1.643 6.335-3.698 8.882-6.164 2.534-2.471 4.613-5.023 6.233-7.664 1.619-2.644 2.74-5.257 3.378-7.853.631-2.592.756-4.871.37-6.844-.426-2.175-1.436-3.812-3.036-4.916-1.599-1.1-3.868-1.367-6.816-.797-4.992.964-9.536 3.788-13.627 8.46-3.231 3.688-5.772 8.532-7.649 14.501-.125.266-.22.564-.28.898 0 .013-.004.024-.008.037-.388 1.319-.767 2.667-1.091 4.094-.031.167-.055.343-.081.519-.588 1.833-1.304 3.798-2.123 5.884-.832 2.103-1.736 4.201-2.714 6.293-.964 2.097-1.92 4.006-2.858 5.74-.939 1.734-1.83 3.159-2.67 4.274-.845 1.119-1.577 1.736-2.192 1.854-.206.034-.358-.213-.465-.755-.196-1.022-.137-2.532.182-4.534.318-2.003.791-4.334 1.413-6.992.615-2.664 1.349-5.556 2.194-8.68.85-3.127 1.734-6.332 2.654-9.618 1.15-3.961 2.265-8.006 3.344-12.129 1.078-4.128 2.03-8.049 2.87-11.777.838-3.726 1.443-7.106 1.811-10.137.362-3.035.376-5.433.033-7.205-.29-1.495-.811-2.683-1.552-3.562-.74-.878-1.585-1.528-2.523-1.947-.934-.418-1.906-.654-2.916-.704-1.012-.05-1.926.004-2.755.159-1.575.31-2.877.863-3.896 1.657-1.026.799-1.461 1.57-1.317 2.32.095.474.294.79.609.936l.02.106c.16.818.116 2.146-.124 3.993-.243 1.845-.622 4.073-1.143 6.676-.521 2.605-1.13 5.477-1.822 8.611-.701 3.131-1.434 6.363-2.201 9.684-.839 3.69-1.673 7.486-2.504 11.384-.584 2.715-1.114 5.346-1.603 7.904-.045.15-.085.305-.112.472-.24 1.318-.665 2.934-1.284 4.853-.619 1.916-1.34 3.928-2.172 6.029-.825 2.101-1.733 4.184-2.71 6.241-.981 2.058-1.961 3.944-2.936 5.65-.979 1.705-1.89 3.098-2.744 4.181-.852 1.083-1.549 1.676-2.095 1.78-.475.098-.756-.061-.836-.471-.2-1.018.064-2.767.787-5.234.718-2.469 1.549-5.132 2.472-7.993.67-2.034 1.349-4.16 2.048-6.377.704-2.215 1.319-4.43 1.842-6.653.522-2.219.895-4.314 1.106-6.3.215-1.982.177-3.72-.116-5.214-.313-1.63-.858-2.939-1.615-3.92-.757-.979-1.602-1.701-2.542-2.153-.937-.458-1.91-.725-2.92-.813-1.008-.085-1.958-.044-2.842.129-1.577.301-2.861.852-3.873 1.648-1.013.796-1.446 1.569-1.3 2.315.063.343.134.555.229.641.092.092.213.193.378.302.189.245.297.434.326.571.181.954.039 2.571-.436 4.847-.477 2.28-1.027 4.75-1.641 7.409-.513 2.073-1.027 4.269-1.528 6.592-.054.267-.102.524-.163.787-.019.074-.04.136-.058.207-.597 1.848-1.292 3.814-2.091 5.906-.794 2.097-1.678 4.19-2.649 6.288-.975 2.092-1.929 4.005-2.862 5.736-.939 1.736-1.824 3.176-2.663 4.326-.839 1.152-1.569 1.783-2.176 1.903-.82.158-1.301-.098-1.434-.782-.185-.95-.05-2.355.404-4.202.449-1.854 1.022-3.94 1.705-6.259.455-1.64.933-3.39 1.413-5.248.489-1.858.93-3.708 1.311-5.546.386-1.836.65-3.652.798-5.443.145-1.792.136-3.487-.032-5.078-.026-.486-.062-.94-.107-1.351-.047-.414-.118-.897-.227-1.44-.623-3.198-1.87-5.599-3.746-7.212-1.871-1.615-4.102-2.169-6.696-1.669-1.366.266-2.687.873-3.945 1.826-1.271.952-2.485 2.156-3.65 3.618-1.171 1.457-2.313 3.125-3.436 5.002-1.118 1.874-2.149 3.855-3.087 5.943-.04-.557-.091-1.026-.169-1.396-.07-.378-.159-.835-.266-1.378-.636-3.263-1.886-5.685-3.76-7.267-1.862-1.575-4.09-2.111-6.685-1.611-2.044.396-3.998 1.53-5.864 3.409-1.867 1.881-3.584 4.063-5.148 6.553-.349-1.416-.905-2.559-1.681-3.432-.771-.87-1.602-1.502-2.494-1.9-.892-.389-1.821-.615-2.786-.673-.97-.06-1.862-.012-2.678.146-1.574.305-2.879.861-3.929 1.661-1.055.804-1.492 1.578-1.351 2.328.068.337.144.554.23.638.08.091.217.19.379.304.189.243.298.433.325.567.222 1.16.04 3.115-.554 5.875-.528 2.449-1.15 5.167-1.861 8.119-.655.313-1.129.93-1.397 1.881-.584 1.735-1.345 3.696-2.301 5.891-.954 2.201-2.089 4.449-3.408 6.747.028-.214.028-.39 0-.527-.067.011-.109-.014-.12-.084l-.139-.714c-.653-3.33-2.221-6.853-4.717-10.57-2.498-3.711-6.251-7.52-11.258-11.421l.081-.119c.649-1.397 1.096-2.821 1.339-4.283.251-1.457.264-2.763.037-3.919-.294-1.494-.99-2.632-2.099-3.403-1.102-.778-2.752-.95-4.935-.528-1.842.356-3.279 1.005-4.297 1.942-1.024.937-1.762 1.945-2.221 3.024-.464 1.077-.73 2.169-.799 3.276-.067 1.109-.04 1.967.079 2.579.266 1.358.727 2.628 1.376 3.809.662 1.178 1.434 2.244 2.332 3.199-.294 1.044-.568 1.908-.825 2.594-.258.683-.546 1.479-.865 2.385-.325.845-.629 1.767-.893 2.77-.25.947-.53 1.983-.845 3.104-.125.362-.194.634-.194.804 0 .174.012.363.055.567.145.751.534 1.293 1.167 1.626.629.338 1.324.435 2.077.286.54-.105 1.039-.465 1.489-1.08.44-.615.865-1.35 1.265-2.206.399-.853.767-1.785 1.099-2.8.334-1.019.621-1.979.871-2.874 2.235 3.096 3.942 5.941 5.123 8.539 1.179 2.594 1.978 4.978 2.401 7.151.516 2.653.603 4.983.249 6.992-.351 2.009-.891 3.699-1.61 5.073-.727 1.376-1.531 2.413-2.415 3.113-.895.702-1.617 1.109-2.158 1.212-1.442.28-2.598-.044-3.482-.963-.887-.922-1.457-2.03-1.711-3.324-.149-.743-.203-1.493-.172-2.239.034-.744.192-1.467.484-2.157.823.613 1.852.803 3.081.566 1.09-.215 1.993-.791 2.689-1.738.7-.945.946-1.965.733-3.053-.246-1.292-.94-2.167-2.055-2.619-1.11-.455-2.219-.574-3.307-.365-.476.09-1.197.406-2.152.947-.955.54-1.863 1.332-2.729 2.381-.847 1.048-1.514 2.337-1.996 3.88-.485 1.539-.52 3.327-.12 5.365.249 1.294.69 2.549 1.312 3.771.632 1.216 1.472 2.267 2.536 3.16 1.058.888 2.332 1.525 3.82 1.902 1.486.387 3.191.388 5.1.022 1.092-.215 2.315-.66 3.668-1.349 1.356-.682 2.742-1.552 4.166-2.605l-.099.021c2.458-1.533 4.75-3.569 6.881-6.097 1.989-2.362 3.806-4.917 5.475-7.649-.101 1.831-.026 3.459.244 4.85.322 1.63.858 2.935 1.615 3.918.761.984 1.583 1.727 2.455 2.225.88.505 1.771.807 2.67.91.913.107 1.668.104 2.286-.015 1.294-.252 2.36-.776 3.198-1.576.834-.796 1.172-1.602 1.011-2.417-.024-.138-.092-.266-.179-.39-.095-.121-.192-.277-.305-.47-.082-.051-.175-.35-.28-.896-.307-1.564-.023-3.93.835-7.092.865-3.168 1.859-6.552 2.995-10.162 1.062-3.239 2.012-6.488 2.855-9.762l-.079.123c.861-2.072 1.788-4.105 2.775-6.094.988-1.986 1.961-3.799 2.911-5.427.951-1.633 1.856-2.954 2.716-3.968.862-1.016 1.594-1.577 2.209-1.7.541-.102.869.117.97.66.203 1.022-.054 2.784-.765 5.281-.704 2.503-1.49 5.139-2.347 7.919-.663 2.032-1.319 4.172-1.971 6.414-.653 2.24-1.209 4.446-1.664 6.62-.455 2.166-.787 4.243-.997 6.221-.21 1.982-.175 3.722.12 5.219.312 1.626.853 2.937 1.604 3.92.76.987 1.601 1.718 2.543 2.209.939.487 1.924.774 2.96.855 1.035.08 1.996.036 2.877-.134 1.493-.289 2.75-.855 3.784-1.685 1.031-.834 1.473-1.627 1.325-2.373-.065-.341-.138-.558-.23-.644-.087-.091-.213-.186-.375-.299-.094-.122-.183-.212-.268-.266-.08-.055-.132-.148-.158-.288-.19-.95-.12-2.336.203-4.167.321-1.825.736-3.804 1.247-5.954.936-3.216 2.136-6.762 3.586-10.64 1.457-3.883 2.949-7.541 4.482-10.976 1.53-3.435 2.999-6.352 4.414-8.738 1.412-2.391 2.592-3.681 3.548-3.865.89-.173 1.387.049 1.511.658.16.819.017 2.008-.422 3.577-.432 1.566-.94 3.427-1.512 5.585l-.019-.105c-.501 1.791-1.048 3.698-1.646 5.716-.599 2.022-1.095 4.114-1.488 6.269-.389 2.158-.639 4.342-.737 6.546-.106 2.207.048 4.367.464 6.47.293 1.497.756 2.893 1.396 4.175.641 1.291 1.403 2.377 2.285 3.263.878.891 1.886 1.522 3.029 1.904 1.133.376 2.387.433 3.747.171 1.642-.315 3.237-1.208 4.792-2.675 1.555-1.463 3.043-3.269 4.465-5.414 1.275-1.916 2.465-4.011 3.58-6.269.052.317.096.64.157.94.636 3.263 1.865 5.687 3.697 7.276 1.839 1.583 4.079 2.117 6.746 1.603 1.707-.332 3.361-1.268 4.969-2.816 1.609-1.544 3.141-3.428 4.582-5.645 1.195-1.838 2.326-3.81 3.392-5.91.047.333.096.651.153.937.635 3.263 1.873 5.687 3.702 7.268 1.832 1.591 4.079 2.123 6.737 1.609 1.707-.329 3.367-1.271 4.976-2.813 1.613-1.547 3.14-3.431 4.585-5.651 1.443-2.221 2.796-4.638 4.06-7.246.209-.445.419-.884.622-1.326.36 1.402.872 2.764 1.559 4.081.847 1.634 1.97 3.043 3.369 4.216 1.396 1.176 3.105 2.027 5.119 2.552 2.015.532 4.349.536 7.019.017 3.407-.662 6.58-2.257 9.519-4.807 2.941-2.542 5.592-5.559 7.954-9.051 2.365-3.49 4.398-7.201 6.11-11.135 1.717-3.927 3.046-7.638 3.996-11.143.068-.368.108-.686.122-.975.019-.282.013-.494-.014-.632z"/></g></svg>